<svg xmlns="http://www.w3.org/2000/svg"><symbol viewBox="0 0 55 55" id="arrow-prev"><circle cx="27.5" cy="27.5" r="27" stroke="currentColor"/><path d="M23.828 26H36v2H23.828l5.364 5.364-1.414 1.414L20 27l7.778-7.778 1.414 1.414L23.828 26z" fill="currentColor"/></symbol><symbol viewBox="0 0 55 55" id="arrow-next"><circle r="27" transform="matrix(-1 0 0 1 27.5 27.5)" stroke="currentColor"/><path d="M31.172 26H19v2h12.172l-5.364 5.364 1.414 1.414L35 27l-7.778-7.778-1.414 1.414L31.172 26z" fill="currentColor"/></symbol><symbol viewBox="0 0 34 24" id="credit"><path d="M34 5.824V4.031A3.719 3.719 0 0030.281.313H3.72A3.719 3.719 0 000 4.03v1.793c0 .184.149.332.332.332h33.336A.332.332 0 0034 5.824zM0 8.613V19.97a3.719 3.719 0 003.719 3.718H30.28A3.719 3.719 0 0034 19.97V8.613a.332.332 0 00-.332-.332H.332A.332.332 0 000 8.613zm8.5 8.7c0 .586-.476 1.062-1.063 1.062H6.375a1.063 1.063 0 01-1.063-1.063V16.25c0-.587.476-1.063 1.063-1.063h1.063c.586 0 1.062.476 1.062 1.063v1.063z" fill="#1362E1"/></symbol><symbol viewBox="0 0 158 40" id="paypal"><path d="M122.091 10.711h-8.524c-.501 0-1.003.483-1.253.965l-3.51 21.232c0 .483.251.724.752.724h4.513c.501 0 .752-.241.752-.724l1.003-6.032c0-.482.501-.965 1.253-.965h2.758c5.766 0 9.025-2.654 9.777-7.962.501-2.171 0-4.101-1.003-5.308-1.504-1.206-3.76-1.93-6.518-1.93zm1.003 7.962c-.502 2.895-2.758 2.895-5.014 2.895h-1.504l1.002-5.549c0-.241.251-.482.753-.482h.501c1.504 0 3.008 0 3.76.965.502.241.502.965.502 2.171z" fill="#139AD6"/><path d="M60.67 10.711h-8.524c-.502 0-1.003.483-1.254.965l-3.51 21.232c0 .483.251.724.752.724h4.012c.501 0 1.002-.483 1.253-.965l1.003-5.79c0-.483.501-.966 1.253-.966h2.758c5.766 0 9.025-2.654 9.778-7.962.5-2.171 0-4.101-1.003-5.308-1.505-1.206-3.51-1.93-6.519-1.93zm1.002 7.962c-.501 2.895-2.758 2.895-5.014 2.895h-1.253l1.002-5.549c0-.241.251-.482.753-.482h.501c1.504 0 3.008 0 3.76.965.251.241.502.965.251 2.171zm24.82-.241H82.48c-.25 0-.752.241-.752.482l-.25 1.207-.251-.483c-1.003-1.206-2.758-1.689-4.764-1.689-4.512 0-8.523 3.378-9.275 7.962-.502 2.413.25 4.584 1.504 6.032 1.253 1.448 3.008 1.93 5.265 1.93 3.76 0 5.766-2.171 5.766-2.171l-.251 1.206c0 .483.25.724.752.724h3.76c.502 0 1.003-.483 1.254-.965l2.256-13.511c-.25-.242-.752-.724-1.002-.724zm-5.767 7.72c-.501 2.172-2.256 3.86-4.763 3.86-1.253 0-2.256-.482-2.758-.964-.501-.724-.752-1.69-.752-2.895.251-2.172 2.257-3.86 4.513-3.86 1.253 0 2.005.482 2.758.964.752.724 1.002 1.93 1.002 2.895z" fill="#263B80"/><path d="M147.662 18.432h-4.011c-.251 0-.752.241-.752.482l-.251 1.207-.25-.483c-1.003-1.206-2.758-1.689-4.764-1.689-4.512 0-8.523 3.378-9.276 7.962-.501 2.413.251 4.584 1.505 6.032 1.253 1.448 3.008 1.93 5.264 1.93 3.761 0 5.766-2.171 5.766-2.171l-.25 1.206c0 .483.25.724.752.724h3.76c.502 0 1.003-.483 1.254-.965l2.256-13.511c-.25-.242-.501-.724-1.003-.724zm-5.766 7.72c-.501 2.172-2.256 3.86-4.763 3.86-1.254 0-2.256-.482-2.758-.964-.501-.724-.752-1.69-.752-2.895.251-2.172 2.256-3.86 4.513-3.86 1.253 0 2.005.482 2.757.964 1.003.724 1.254 1.93 1.003 2.895z" fill="#139AD6"/><path d="M108.302 18.432h-4.261c-.502 0-.753.241-1.003.482l-5.516 8.203-2.507-7.72c-.25-.483-.501-.724-1.253-.724H89.75c-.502 0-.752.483-.752.965l4.512 12.787-4.262 5.79c-.25.483 0 1.207.502 1.207h4.01c.502 0 .753-.241 1.004-.482l13.788-19.06c.752-.724.251-1.448-.251-1.448z" fill="#263B80"/><path d="M152.426 11.435l-3.51 21.714c0 .483.251.724.752.724h3.51c.501 0 1.003-.482 1.253-.965l3.51-21.232c0-.482-.25-.723-.752-.723h-4.011c-.251-.242-.501 0-.752.482z" fill="#139AD6"/><path d="M28.83 3.473C27.076 1.543 23.818.578 19.305.578H6.769c-.752 0-1.504.724-1.755 1.448L0 33.632c0 .724.501 1.206 1.003 1.206h7.772l2.005-11.822v.483c.25-.724 1.003-1.448 1.755-1.448h3.76c7.27 0 12.786-2.895 14.541-10.857v-.724c-.25 0-.25 0 0 0 .25-3.137-.25-5.067-2.005-6.997z" fill="#263B80"/><path d="M30.585 10.47v.724c-1.754 8.203-7.27 10.857-14.54 10.857h-3.76c-.753 0-1.505.724-1.755 1.448L8.021 38.215c0 .483.251.965 1.003.965h6.518c.753 0 1.505-.482 1.505-1.206v-.242l1.253-7.479v-.483c0-.723.752-1.206 1.504-1.206h1.003c6.268 0 11.282-2.413 12.535-9.65.502-2.896.25-5.55-1.253-7.239-.251-.482-.752-.965-1.505-1.206z" fill="#139AD6"/><path d="M28.83 9.746c-.25 0-.501-.241-.752-.241-.25 0-.501 0-.752-.242-1.003-.24-2.005-.24-3.259-.24H14.29c-.25 0-.502 0-.752.24a1.32 1.32 0 00-.752 1.207L10.78 23.016v.482c.25-.723 1.003-1.447 1.755-1.447h3.76c7.27 0 12.786-2.895 14.541-10.857 0-.242 0-.483.25-.724-.5-.241-.751-.483-1.253-.483-.752-.241-.752-.241-1.003-.241z" fill="#232C65"/></symbol><symbol viewBox="0 0 37 37" id="crypto"><path d="M19.719 19.719h-3.657v6.093h3.657c1.95 0 3.656-1.34 3.656-3.046 0-1.707-1.706-3.047-3.656-3.047zm0-8.531h-3.657v6.093h3.657c1.95 0 3.656-1.34 3.656-3.047 0-1.706-1.706-3.046-3.656-3.046z" fill="#1362E1"/><path d="M18.5.219C8.384.219.219 8.384.219 18.5S8.384 36.781 18.5 36.781 36.781 28.616 36.781 18.5 28.616.219 18.5.219zm7.313 22.547c0 2.68-2.072 4.875-4.875 5.362v1.34c0 .61-.61 1.22-1.22 1.22-.609 0-1.218-.61-1.218-1.22V28.25h-2.438v1.219c0 .61-.487 1.218-1.218 1.218s-1.219-.609-1.219-1.218V28.25h-1.219c-.731 0-1.219-.61-1.219-1.219 0-.61.488-1.218 1.22-1.218h1.218v-6.094h-1.219c-.731 0-1.219-.61-1.219-1.219 0-.61.488-1.219 1.22-1.219h1.218v-6.093h-1.219c-.731 0-1.219-.488-1.219-1.22 0-.73.488-1.218 1.22-1.218h1.218V7.531c0-.731.488-1.218 1.219-1.218.731 0 1.219.487 1.219 1.218V8.75H18.5V7.531c0-.731.61-1.218 1.219-1.218.61 0 1.218.487 1.218 1.218v1.34c2.804.488 4.875 2.682 4.875 5.363 0 1.707-.975 3.291-2.315 4.266 1.34.975 2.316 2.56 2.316 4.266z" fill="#1362E1"/></symbol><symbol viewBox="0 0 10 10" id="close"><path d="M5 3.94L8.713.227l1.06 1.06L6.061 5l3.712 3.713-1.06 1.06L5 6.061 1.288 9.773.227 8.713 3.94 5 .227 1.288l1.06-1.06L5 3.94z" fill="currentColor"/></symbol><symbol viewBox="0 0 19 21" id="copy"><path d="M4.292 4.25V1.125A1.042 1.042 0 015.333.083h12.5a1.042 1.042 0 011.042 1.042V15.71a1.042 1.042 0 01-1.042 1.041h-3.125v3.125c0 .575-.468 1.042-1.049 1.042H1.174a1.042 1.042 0 01-1.049-1.042L.128 5.292c0-.575.469-1.042 1.05-1.042h3.114zm-2.08 2.083l-.004 12.5h10.417v-12.5H2.211zM6.374 4.25h8.333v10.417h2.084v-12.5H6.375V4.25z" fill="currentColor"/></symbol><symbol viewBox="0 0 22 16" id="isCopy"><path d="M8.5 11.965L19.99.474l1.769 1.767L8.499 15.5.546 7.545l1.767-1.768L8.5 11.965z" fill="#1362E1"/></symbol></svg>