<svg xmlns="http://www.w3.org/2000/svg">
    <symbol viewBox="0 0 55 55" id="arrow-prev">
        <circle cx="27.5" cy="27.5" r="27" stroke="currentColor"/>
        <path d="M23.828 25.9999H36V27.9999H23.828L29.192 33.3639L27.778 34.7779L20 26.9999L27.778 19.2219L29.192 20.6359L23.828 25.9999Z"
              fill="currentColor"/>
    </symbol>
    <symbol viewBox="0 0 55 55" id="arrow-next">
        <circle r="27" transform="matrix(-1 0 0 1 27.5 27.5)" stroke="currentColor"/>
        <path d="M31.172 25.9999H19V27.9999H31.172L25.808 33.3639L27.222 34.7779L35 26.9999L27.222 19.2219L25.808 20.6359L31.172 25.9999Z"
              fill="currentColor"/>
    </symbol>
    <symbol viewBox="0 0 34 24" id="credit">
        <path d="M34 5.82422V4.03125C34 1.97744 32.3351 0.3125 30.2812 0.3125H3.71875C1.66494 0.3125 0 1.97744 0 4.03125V5.82422C0 6.00757 0.148684 6.15625 0.332031 6.15625H33.668C33.8513 6.15625 34 6.00757 34 5.82422Z"
              fill="#1362E1"/>
        <path d="M0 8.61328V19.9688C0 22.0226 1.66494 23.6875 3.71875 23.6875H30.2812C32.3351 23.6875 34 22.0226 34 19.9688V8.61328C34 8.42993 33.8513 8.28125 33.668 8.28125H0.332031C0.148684 8.28125 0 8.42993 0 8.61328ZM8.5 17.3125C8.5 17.8993 8.02427 18.375 7.4375 18.375H6.375C5.78823 18.375 5.3125 17.8993 5.3125 17.3125V16.25C5.3125 15.6632 5.78823 15.1875 6.375 15.1875H7.4375C8.02427 15.1875 8.5 15.6632 8.5 16.25V17.3125Z"
              fill="#1362E1"/>
    </symbol>
    <symbol viewBox="0 0 158 40" id="paypal">
        <path d="M122.091 10.7112H113.567C113.066 10.7112 112.564 11.1938 112.314 11.6763L108.804 32.9081C108.804 33.3906 109.055 33.6319 109.556 33.6319H114.069C114.57 33.6319 114.821 33.3906 114.821 32.9081L115.824 26.8763C115.824 26.3938 116.325 25.9112 117.077 25.9112H119.835C125.601 25.9112 128.86 23.2573 129.612 17.9493C130.113 15.7779 129.612 13.8478 128.609 12.6414C127.105 11.4351 124.849 10.7112 122.091 10.7112ZM123.094 18.6731C122.592 21.5684 120.336 21.5684 118.08 21.5684H116.576L117.578 16.0192C117.578 15.7779 117.829 15.5366 118.331 15.5366H118.832C120.336 15.5366 121.84 15.5366 122.592 16.5017C123.094 16.743 123.094 17.4668 123.094 18.6731Z" fill="#139AD6"/>
        <path d="M60.6694 10.7112H52.1456C51.6442 10.7112 51.1428 11.1938 50.8921 11.6763L47.3823 32.9081C47.3823 33.3906 47.633 33.6319 48.1344 33.6319H52.1456C52.647 33.6319 53.1484 33.1493 53.3991 32.6668L54.4019 26.8763C54.4019 26.3938 54.9033 25.9112 55.6554 25.9112H58.4131C64.1793 25.9112 67.4384 23.2573 68.1905 17.9493C68.6919 15.7779 68.1905 13.8478 67.1877 12.6414C65.6835 11.4351 63.6779 10.7112 60.6694 10.7112ZM61.6722 18.6731C61.1708 21.5684 58.9145 21.5684 56.6582 21.5684H55.4047L56.4075 16.0192C56.4075 15.7779 56.6582 15.5366 57.1596 15.5366H57.661C59.1652 15.5366 60.6694 15.5366 61.4215 16.5017C61.6722 16.743 61.9229 17.4668 61.6722 18.6731Z" fill="#263B80"/>
        <path d="M86.4915 18.4319H82.4803C82.2296 18.4319 81.7282 18.6731 81.7282 18.9144L81.4775 20.1208L81.2268 19.6382C80.224 18.4319 78.4691 17.9493 76.4635 17.9493C71.9509 17.9493 67.9397 21.3271 67.1876 25.9112C66.6862 28.3239 67.4383 30.4954 68.6918 31.943C69.9453 33.3906 71.7002 33.8731 73.9565 33.8731C77.717 33.8731 79.7226 31.7017 79.7226 31.7017L79.4719 32.9081C79.4719 33.3906 79.7226 33.6319 80.224 33.6319H83.9845C84.4859 33.6319 84.9873 33.1493 85.238 32.6668L87.4943 19.1557C87.2436 18.9144 86.7422 18.4319 86.4915 18.4319ZM80.7254 26.1525C80.224 28.3239 78.4691 30.0128 75.9621 30.0128C74.7086 30.0128 73.7058 29.5303 73.2044 29.0478C72.703 28.3239 72.4523 27.3589 72.4523 26.1525C72.703 23.9811 74.7086 22.2922 76.9649 22.2922C78.2184 22.2922 78.9705 22.7747 79.7226 23.2573C80.4747 23.9811 80.7254 25.1874 80.7254 26.1525Z" fill="#263B80"/>
        <path d="M147.662 18.4318H143.651C143.4 18.4318 142.899 18.6731 142.899 18.9144L142.648 20.1207L142.398 19.6382C141.395 18.4318 139.64 17.9493 137.634 17.9493C133.122 17.9493 129.111 21.3271 128.358 25.9112C127.857 28.3239 128.609 30.4953 129.863 31.9429C131.116 33.3905 132.871 33.8731 135.127 33.8731C138.888 33.8731 140.893 31.7017 140.893 31.7017L140.643 32.908C140.643 33.3905 140.893 33.6318 141.395 33.6318H145.155C145.657 33.6318 146.158 33.1493 146.409 32.6667L148.665 19.1556C148.415 18.9144 148.164 18.4318 147.662 18.4318ZM141.896 26.1525C141.395 28.3239 139.64 30.0128 137.133 30.0128C135.879 30.0128 134.877 29.5302 134.375 29.0477C133.874 28.3239 133.623 27.3588 133.623 26.1525C133.874 23.981 135.879 22.2921 138.136 22.2921C139.389 22.2921 140.141 22.7747 140.893 23.2572C141.896 23.981 142.147 25.1874 141.896 26.1525Z" fill="#139AD6"/>
        <path d="M108.302 18.4318H104.041C103.539 18.4318 103.288 18.6731 103.038 18.9144L97.5223 27.1175L95.0153 19.3969C94.7646 18.9144 94.5139 18.6731 93.7618 18.6731H89.7506C89.2492 18.6731 88.9985 19.1556 88.9985 19.6382L93.5111 32.4255L89.2492 38.2159C88.9985 38.6985 89.2492 39.4223 89.7506 39.4223H93.7618C94.2632 39.4223 94.5139 39.181 94.7646 38.9397L108.553 19.8794C109.305 19.1556 108.804 18.4318 108.302 18.4318Z" fill="#263B80"/>
        <path d="M152.426 11.435L148.916 33.1493C148.916 33.6319 149.167 33.8731 149.668 33.8731H153.178C153.679 33.8731 154.181 33.3906 154.431 32.908L157.941 11.6763C157.941 11.1938 157.691 10.9525 157.189 10.9525H153.178C152.927 10.7112 152.677 10.9525 152.426 11.435Z" fill="#139AD6"/>
        <path d="M28.8305 3.47312C27.0756 1.54296 23.8165 0.577881 19.3039 0.577881H6.76891C6.01681 0.577881 5.26471 1.30169 5.01401 2.0255L0 33.6319C0 34.3557 0.501401 34.8382 1.0028 34.8382H8.77451L10.7801 23.016V23.4985C11.0308 22.7747 11.7829 22.0509 12.535 22.0509H16.2955C23.5658 22.0509 29.0812 19.1557 30.8361 11.1938C30.8361 10.9525 30.8361 10.7112 30.8361 10.4699C30.5854 10.4699 30.5854 10.4699 30.8361 10.4699C31.0868 7.33344 30.5854 5.40328 28.8305 3.47312Z" fill="#263B80"/>
        <path d="M30.5855 10.4699C30.5855 10.7112 30.5855 10.9525 30.5855 11.1937C28.8306 19.3969 23.3152 22.0509 16.0449 22.0509H12.2844C11.5323 22.0509 10.7802 22.7747 10.5295 23.4985L8.02246 38.216C8.02246 38.6985 8.27316 39.181 9.02526 39.181H15.5435C16.2956 39.181 17.0477 38.6985 17.0477 37.9747V37.7334L18.3012 30.2541V29.7715C18.3012 29.0477 19.0533 28.5652 19.8054 28.5652H20.8082C27.0757 28.5652 32.0897 26.1525 33.3432 18.9144C33.8446 16.0191 33.5939 13.3652 32.0897 11.6763C31.839 11.1937 31.3376 10.7112 30.5855 10.4699Z" fill="#139AD6"/>
        <path d="M28.8304 9.74602C28.5797 9.74602 28.329 9.50475 28.0783 9.50475C27.8276 9.50475 27.5769 9.50475 27.3262 9.26348C26.3234 9.02221 25.3206 9.02222 24.0671 9.02222H14.2898C14.0391 9.02222 13.7884 9.02221 13.5377 9.26348C13.0363 9.50475 12.7856 9.98729 12.7856 10.4698L10.78 23.0159V23.4984C11.0307 22.7746 11.7828 22.0508 12.5349 22.0508H16.2954C23.5657 22.0508 29.0811 19.1555 30.836 11.1936C30.836 10.9524 30.836 10.7111 31.0867 10.4698C30.5853 10.2286 30.3346 9.9873 29.8332 9.9873C29.0811 9.74603 29.0811 9.74602 28.8304 9.74602Z" fill="#232C65"/>
    </symbol>
    <symbol  viewBox="0 0 37 37" id="crypto">
        <path d="M19.7188 19.7188H16.0625V25.8125H19.7188C21.6687 25.8125 23.375 24.4719 23.375 22.7656C23.375 21.0594 21.6687 19.7188 19.7188 19.7188Z" fill="#1362E1"/>
        <path d="M19.7188 11.1875H16.0625V17.2812H19.7188C21.6687 17.2812 23.375 15.9406 23.375 14.2344C23.375 12.5281 21.6687 11.1875 19.7188 11.1875Z" fill="#1362E1"/>
        <path d="M18.5 0.21875C8.38437 0.21875 0.21875 8.38437 0.21875 18.5C0.21875 28.6156 8.38437 36.7812 18.5 36.7812C28.6156 36.7812 36.7812 28.6156 36.7812 18.5C36.7812 8.38437 28.6156 0.21875 18.5 0.21875ZM25.8125 22.7656C25.8125 25.4469 23.7406 27.6406 20.9375 28.1281V29.4688C20.9375 30.0781 20.3281 30.6875 19.7188 30.6875C19.1094 30.6875 18.5 30.0781 18.5 29.4688V28.25H16.0625V29.4688C16.0625 30.0781 15.575 30.6875 14.8438 30.6875C14.1125 30.6875 13.625 30.0781 13.625 29.4688V28.25H12.4062C11.675 28.25 11.1875 27.6406 11.1875 27.0312C11.1875 26.4219 11.675 25.8125 12.4062 25.8125H13.625V19.7188H12.4062C11.675 19.7188 11.1875 19.1094 11.1875 18.5C11.1875 17.8906 11.675 17.2812 12.4062 17.2812H13.625V11.1875H12.4062C11.675 11.1875 11.1875 10.7 11.1875 9.96875C11.1875 9.2375 11.675 8.75 12.4062 8.75H13.625V7.53125C13.625 6.8 14.1125 6.3125 14.8438 6.3125C15.575 6.3125 16.0625 6.8 16.0625 7.53125V8.75H18.5V7.53125C18.5 6.8 19.1094 6.3125 19.7188 6.3125C20.3281 6.3125 20.9375 6.8 20.9375 7.53125V8.87188C23.7406 9.35938 25.8125 11.5531 25.8125 14.2344C25.8125 15.9406 24.8375 17.525 23.4969 18.5C24.8375 19.475 25.8125 21.0594 25.8125 22.7656Z" fill="#1362E1"/>
    </symbol>
    <symbol viewBox="0 0 10 10" id="close">
        <path d="M5 3.93955L8.71251 0.227051L9.77301 1.28755L6.0605 5.00005L9.77301 8.71255L8.71251 9.77305L5 6.06055L1.28751 9.77305L0.227005 8.71255L3.93951 5.00005L0.227005 1.28755L1.28751 0.227051L5 3.93955Z" fill="currentColor"/>
    </symbol>
    <symbol viewBox="0 0 19 21" id="copy">
        <path d="M4.29167 4.25016V1.12516C4.29167 0.848896 4.40141 0.583944 4.59676 0.388593C4.79211 0.193243 5.05707 0.0834961 5.33333 0.0834961H17.8333C18.1096 0.0834961 18.3746 0.193243 18.5699 0.388593C18.7653 0.583944 18.875 0.848896 18.875 1.12516V15.7085C18.875 15.9848 18.7653 16.2497 18.5699 16.4451C18.3746 16.6404 18.1096 16.7502 17.8333 16.7502H14.7083V19.8752C14.7083 20.4502 14.2396 20.9168 13.6594 20.9168H1.17396C1.03659 20.9177 0.900414 20.8913 0.773252 20.8394C0.646091 20.7874 0.530451 20.7108 0.432978 20.614C0.335504 20.5172 0.258118 20.4021 0.205265 20.2753C0.152412 20.1485 0.125135 20.0125 0.125 19.8752L0.128125 5.29183C0.128125 4.71683 0.596875 4.25016 1.17708 4.25016H4.29167ZM2.21146 6.3335L2.20833 18.8335H12.625V6.3335H2.21146ZM6.375 4.25016H14.7083V14.6668H16.7917V2.16683H6.375V4.25016Z" fill="currentColor"/>
    </symbol>
    <symbol viewBox="0 0 22 16" id="isCopy">
        <path d="M8.49992 11.9649L19.9899 0.473633L21.7587 2.24113L8.49992 15.4999L0.544922 7.54488L2.31242 5.77738L8.49992 11.9649Z" fill="#1362E1"/>
    </symbol>
</svg>